<svg xmlns="http://www.w3.org/2000/svg" width="112" height="56" fill="none"><path fill="#212F3C" d="M0 0h112v56H0z"/><path fill="#18A6E1" fill-rule="evenodd" d="M32.598 35.41v.14a.66.66 0 0 0 .2.36 32.73 32.73 0 0 0 23 9.45c6.35 0 13.73-2.15 18.82-6.2a.739.739 0 1 0-.74-1.28 42.9 42.9 0 0 1-17.55 3.87 43.7 43.7 0 0 1-23-6.58.65.65 0 0 0-.33-.1.39.39 0 0 0-.39.34" clip-rule="evenodd"/><path fill="#18A6E1" fill-rule="evenodd" d="M70.438 36.02a.64.64 0 0 0-.29.42v.09c0 .15.16.26.42.22 1.63-.21 5.29-.68 5.94.22s-.73 4.58-1.34 6.23c-.19.49.21.7.63.32 2.73-2.45 3.44-7.59 2.88-8.33a5 5 0 0 0-3.08-.66 8.68 8.68 0 0 0-5.16 1.49" clip-rule="evenodd"/><path fill="#fff" fill-rule="evenodd" d="M62.208 30.69a.8.8 0 0 1-.28 0 .46.46 0 0 1-.18-.13 1.3 1.3 0 0 1-.15-.27l-2.88-7.57-.12-.28a.4.4 0 0 1 0-.18c0-.17.11-.26.34-.26h1.66a.52.52 0 0 1 .59.44l1.73 6 1.77-6a.52.52 0 0 1 .59-.44h1.64c.22 0 .34.09.34.26q.012.09 0 .18l-.08.24-2.89 7.57a1 1 0 0 1-.14.27.46.46 0 0 1-.18.13.7.7 0 0 1-.28 0zm6.69 0a.36.36 0 0 1-.42-.42v-7.84a.46.46 0 0 1 .1-.34.47.47 0 0 1 .32-.07h1.62a.47.47 0 0 1 .33.09c.07.1.101.22.09.34v7.84a.47.47 0 0 1-.09.32.42.42 0 0 1-.33.1zm.81-10a1.45 1.45 0 0 1-1-.36 1.4 1.4 0 0 1 0-1.94 1.65 1.65 0 0 1 2.06 0 1.4 1.4 0 0 1 0 1.94 1.45 1.45 0 0 1-1 .36zm6.42 10.22a3.2 3.2 0 0 1-1.9-.57 3.65 3.65 0 0 1-1.24-1.58 5.85 5.85 0 0 1-.39-2.37 5.35 5.35 0 0 1 1-3.37 3.19 3.19 0 0 1 2.63-1.26 3.63 3.63 0 0 1 2.31.76v-4a.42.42 0 0 1 .11-.33.45.45 0 0 1 .32-.09h1.61a.47.47 0 0 1 .33.09.42.42 0 0 1 .1.33v11.75a.36.36 0 0 1-.43.42h-1.39a.5.5 0 0 1-.32-.08.57.57 0 0 1-.16-.29l-.1-.39a3.56 3.56 0 0 1-2.48.95zm.81-1.89a2.8 2.8 0 0 0 1.55-.48v-4.52a3.26 3.26 0 0 0-1.67-.42 1.48 1.48 0 0 0-1.33.67 3.8 3.8 0 0 0-.44 2 3.6 3.6 0 0 0 .47 2 1.62 1.62 0 0 0 1.42.66zm18.91 1.94a4.05 4.05 0 0 1-3.13-1.22 4.76 4.76 0 0 1-1.12-3.4 4.75 4.75 0 0 1 1.13-3.38 4.67 4.67 0 0 1 6.27 0 4.8 4.8 0 0 1 1.13 3.38 4.8 4.8 0 0 1-1.13 3.39 4.07 4.07 0 0 1-3.14 1.22zm0-1.91q1.75-.03 1.75-2.71c0-1.79-.59-2.69-1.77-2.69s-1.77.9-1.77 2.69.59 2.7 1.77 2.7zm-9.25-1.93a6 6 0 0 1-1.63-.19 2.23 2.23 0 0 0 .67 1.6 2.56 2.56 0 0 0 1.72.49q.452.002.9-.06.612-.098 1.21-.26h.13c.18 0 .28.13.28.38v.77a.7.7 0 0 1-.08.38.63.63 0 0 1-.29.19 7 7 0 0 1-2.56.46 4.15 4.15 0 0 1-3.14-1.13 4.5 4.5 0 0 1-1.1-3.26 4.86 4.86 0 0 1 1.14-3.47 4 4 0 0 1 3.11-1.23 3.57 3.57 0 0 1 2.41.75 2.54 2.54 0 0 1 .86 2 2.14 2.14 0 0 1-.93 1.89 4.83 4.83 0 0 1-2.7.69m.23-3.61c-1.05 0-1.66.66-1.83 2q.729.14 1.47.13a2.25 2.25 0 0 0 1.13-.28.92.92 0 0 0 .38-.8c0-.7-.41-1.05-1.24-1.05" clip-rule="evenodd"/><path fill="#18A6E1" fill-rule="evenodd" d="M15.138 23.62a3.2 3.2 0 0 0-1.66.46v4.48a3.16 3.16 0 0 0 1.66.46 1.6 1.6 0 0 0 1.4-.65 3.63 3.63 0 0 0 .45-2 3.75 3.75 0 0 0-.39-2.1 1.6 1.6 0 0 0-1.41-.65zm-4.13-1.19a.36.36 0 0 1 .42-.43h1.22a.45.45 0 0 1 .48.38l.11.44c.353-.346.77-.618 1.23-.8a3.8 3.8 0 0 1 1.47-.29 3.14 3.14 0 0 1 2.6 1.21 5.14 5.14 0 0 1 .95 3.26c.02.848-.14 1.69-.47 2.47a3.9 3.9 0 0 1-1.29 1.63 3.15 3.15 0 0 1-1.86.57c-.43 0-.86-.067-1.27-.2a3.1 3.1 0 0 1-1.12-.65v3.73a.47.47 0 0 1-.09.33.42.42 0 0 1-.33.1h-1.63a.36.36 0 0 1-.42-.43zM23.488 23.3c.36-.43.793-.792 1.28-1.07a2.7 2.7 0 0 1 1.27-.31h.24a.5.5 0 0 1 .32.1.44.44 0 0 1 .1.33v1.43a.5.5 0 0 1-.09.33.46.46 0 0 1-.33.1h-.78a4.6 4.6 0 0 0-1 .12 4 4 0 0 0-.95.28v5.71a.5.5 0 0 1-.09.33.42.42 0 0 1-.33.1h-1.53a.44.44 0 0 1-.32-.1.45.45 0 0 1-.1-.33v-7.89a.42.42 0 0 1 .1-.33.44.44 0 0 1 .32-.08h1.22a.45.45 0 0 1 .48.38l.22.92zM27.918 22.43a.36.36 0 0 1 .42-.43h1.63a.45.45 0 0 1 .33.1.47.47 0 0 1 .09.33v7.84a.5.5 0 0 1-.09.33.45.45 0 0 1-.33.1h-1.63a.42.42 0 0 1-.32-.1.45.45 0 0 1-.1-.33zm1.23-1.77a1.45 1.45 0 0 1-1-.36 1.4 1.4 0 0 1 0-1.94 1.45 1.45 0 0 1 1-.36 1.48 1.48 0 0 1 1 .36 1.4 1.4 0 0 1 0 1.94 1.48 1.48 0 0 1-1 .36M34.738 22.84a7 7 0 0 1 1.61-.82 4.4 4.4 0 0 1 1.49-.25 2.28 2.28 0 0 1 2.15 1.09 6.6 6.6 0 0 1 1.61-.84 5 5 0 0 1 1.58-.25 2.44 2.44 0 0 1 1.83.66 2.52 2.52 0 0 1 .66 1.86v6a.44.44 0 0 1-.1.32.42.42 0 0 1-.33.1h-1.64a.4.4 0 0 1-.32-.1.44.44 0 0 1-.11-.32v-5.48c0-.77-.34-1.16-1-1.16a4.2 4.2 0 0 0-1.84.45v6.18a.5.5 0 0 1-.1.32.42.42 0 0 1-.33.1h-1.62a.4.4 0 0 1-.32-.1.44.44 0 0 1-.11-.32v-5.47c0-.77-.34-1.16-1-1.16a4.2 4.2 0 0 0-1.86.46v6.17a.44.44 0 0 1-.1.32.42.42 0 0 1-.33.1h-1.65a.4.4 0 0 1-.32-.1.44.44 0 0 1-.1-.32v-7.85a.42.42 0 0 1 .1-.33.4.4 0 0 1 .32-.1h1.22a.44.44 0 0 1 .47.38zM51.258 23.47c-1.08 0-1.71.67-1.87 2 .494.093.997.137 1.5.13a2.37 2.37 0 0 0 1.26-.26.94.94 0 0 0 .38-.81c0-.72-.42-1.07-1.27-1.07m-.23 3.67a6.9 6.9 0 0 1-1.68-.18c.005.614.253 1.2.69 1.63a2.7 2.7 0 0 0 1.77.49q.462 0 .92-.06.627-.091 1.24-.26h.19c.19 0 .29.13.29.39v.78a.7.7 0 0 1-.08.38.6.6 0 0 1-.29.2 7.2 7.2 0 0 1-2.63.48 4.3 4.3 0 0 1-3.22-1.16 4.53 4.53 0 0 1-1.13-3.32 4.93 4.93 0 0 1 1.15-3.48 4.11 4.11 0 0 1 3.2-1.26 3.64 3.64 0 0 1 2.46.76 2.56 2.56 0 0 1 .89 2.05 2.2 2.2 0 0 1-1 1.93 5 5 0 0 1-2.82.65" clip-rule="evenodd"/></svg>