<svg xmlns="http://www.w3.org/2000/svg" width="112" height="56" fill="none"><path fill="#000" d="M0 0h112v56H0z"/><path fill="#fff" d="M33.047 18.4a6.07 6.07 0 0 0 1.4-4.39 6.13 6.13 0 0 0-4 2.08 5.69 5.69 0 0 0-1.44 4.17 5.06 5.06 0 0 0 4.1-1.86"/><path fill="#fff" d="M33.047 18.3a6.16 6.16 0 0 0 1.4-4.3 6.12 6.12 0 0 0-4 2.07 5.69 5.69 0 0 0-1.44 4.17 5 5 0 0 0 4.1-1.94M34.368 20.51c-2.23-.14-4.13 1.27-5.15 1.27s-2.69-1.21-4.47-1.18a6.58 6.58 0 0 0-5.6 3.43c-2.41 4.15-.63 10.33 1.72 13.64 1.13 1.72 2.49 3.43 4.3 3.43s2.36-1.1 4.43-1.1 2.66 1.12 4.47 1.12 3-1.72 4.16-3.34a14.6 14.6 0 0 0 1.86-3.83 6 6 0 0 1-3.59-5.55 6.13 6.13 0 0 1 2.95-5.2 6.33 6.33 0 0 0-5-2.69M51.948 18.31v4.28h3.43v3h-3.43v10c0 1.56.68 2.29 2.21 2.29q.619.003 1.23-.1v2.94c-.683.127-1.376.184-2.07.17-3.69 0-5.15-1.39-5.15-4.92V25.59h-2.59v-3h2.64v-4.28zM67.948 40.85h-4l-6.58-18.26h4l4.57 14.53 4.64-14.57h3.87zM94.898 29.91h-7.27v-7.28h-3.46v7.28h-7.24v3.41h7.24v7.33h3.46v-7.33h7.27z"/></svg>