<svg xmlns="http://www.w3.org/2000/svg" width="112" height="56" fill="none"><path fill="#fff" d="M0 0h112v56H0z"/><path fill="#007AC0" d="M66.61 29.128a2.67 2.67 0 0 1-2.39-1.29c-.56-.88-.51-2.87-.51-3.48 0 0 0-3.4.1-3.82l-3.34-.11c-.11.5-.08 4.37-.08 4.37 0 1.87.14 3.56 1.2 4.91a6.31 6.31 0 0 0 5 2.33 6 6 0 0 0 6.17-5.29h-3.37a2.74 2.74 0 0 1-2.78 2.38m-24.89-4.45a4.52 4.52 0 0 0 2.9-3.07 118 118 0 0 0-11.84 2.37v8h3.27v-6.76h2.35l3.27 6.69h3.79zm16.86 4.27h-7.74v-4h6.62v-2.97h-6.62v-1.15c-1.07.1-2.17.21-3.27.34v10.74h11v-2.93zm-41.52 3a6.07 6.07 0 0 0 4.42-1.61 5.66 5.66 0 0 0 1.58-3.33 70.3 70.3 0 0 0-10.67 4.9zm9.15 0h3.27v-7.11q-1.68.49-3.27 1zm71.22-16.8-3.37 10.92-3.37-10.92h-3.38l5.52 16.76h2.45l5.56-16.76zm-23.76 2.91h4.37v13.85h3.28v-13.85h4.37v-2.91h-12z"/><path fill="#231F20" d="M66.62 15.008a6.6 6.6 0 0 0-3.36.86 5.53 5.53 0 0 0-2.55 3.28c.82 0 2 0 3.5.11a2.8 2.8 0 0 1 5 .41c1.17.14 2.38.31 3.56.52a5.89 5.89 0 0 0-6.15-5.18m-49.78.13H11v12.58c1.06-.42 2.15-.82 3.28-1.21v-8.45h2.5a2.93 2.93 0 0 1 2.42 1c.63.8.69 1.48.69 5.64 1.07-.3 3.29-.88 3.29-.88 0-4 0-5.34-1.7-7.11a6.12 6.12 0 0 0-4.64-1.57m9.37 8q1.59-.36 3.27-.69v-7.3h-3.27zm32.37-8h-11v4.62c1.1-.1 2.19-.19 3.27-.26v-1.44h7.77v-2.91zm-19.24 0h-6.56v6.65c1.08-.2 2.17-.38 3.27-.56v-3.17h3.08a2.2 2.2 0 0 1 2.38 2.39l3.26-.39a5.06 5.06 0 0 0-5.43-4.91zM47.92 40.438a2.62 2.62 0 0 0-1.32-.9l-1.55-.48a7.2 7.2 0 0 1-1.29-.51.84.84 0 0 1-.54-.76.86.86 0 0 1 .41-.76 2.15 2.15 0 0 1 2.62.48l1.67-1.22a3.7 3.7 0 0 0-1.05-.88 4.26 4.26 0 0 0-2.15-.54 3.9 3.9 0 0 0-2.54.82 2.62 2.62 0 0 0-1 2.16 2.38 2.38 0 0 0 .54 1.6 2.83 2.83 0 0 0 1.32.88l1.55.47q.67.202 1.29.53a.84.84 0 0 1 .53.75c0 .73-.55 1.09-1.65 1.09a2.06 2.06 0 0 1-2.16-1.4l-1.81 1.05a3.54 3.54 0 0 0 1.5 1.68 4.83 4.83 0 0 0 2.47.6 4.44 4.44 0 0 0 2.71-.8 2.58 2.58 0 0 0 1.08-2.2 2.54 2.54 0 0 0-.63-1.66M57.42 36.868a3 3 0 0 1 3-1.8v2.27a3.16 3.16 0 0 0-2.1.57 2.47 2.47 0 0 0-.89 2.15v4.9h-2.11v-9.72h2.1zM62.92 40.988a2.75 2.75 0 0 0 1 1.71 3.5 3.5 0 0 0 2.05.59 2.82 2.82 0 0 0 2.5-1.21l1.74 1a4.8 4.8 0 0 1-4.26 2.12 5.2 5.2 0 0 1-3.83-1.44 4.94 4.94 0 0 1-1.46-3.67 5 5 0 0 1 1.44-3.65 4.93 4.93 0 0 1 3.69-1.46 4.52 4.52 0 0 1 3.51 1.49 5.2 5.2 0 0 1 1.37 3.64q-.005.439-.08.87zm0-1.71h5.72a2.69 2.69 0 0 0-2.78-2.39 3 3 0 0 0-1.94.64 2.94 2.94 0 0 0-1 1.75M79.71 35.238h2.1v9.72h-2.1v-1.35a3.94 3.94 0 0 1-3.4 1.65 4.57 4.57 0 0 1-3.39-1.53 5.36 5.36 0 0 1 0-7.27 4.6 4.6 0 0 1 3.43-1.47 4 4 0 0 1 3.36 1.62zm-5.27 7.09a3.18 3.18 0 0 0 4.39 0 3.27 3.27 0 0 0 0-4.46 3.18 3.18 0 0 0-4.39 0 3.27 3.27 0 0 0 0 4.46M93.72 34.998a3.5 3.5 0 0 1 2.67 1.07 4 4 0 0 1 1 2.87v6h-2.1v-5.86a2.2 2.2 0 0 0-.51-1.56 1.79 1.79 0 0 0-1.38-.56 2 2 0 0 0-1.55.64 2.83 2.83 0 0 0-.57 1.93v5.44h-2.1v-5.89a2.3 2.3 0 0 0-.48-1.56 1.66 1.66 0 0 0-1.35-.56 2 2 0 0 0-1.55.65 2.72 2.72 0 0 0-.61 1.92v5.44h-2.1v-9.72h2.1v1.17a3.11 3.11 0 0 1 2.78-1.42 3 3 0 0 1 2.77 1.53 3.27 3.27 0 0 1 2.98-1.53M53.7 43.078a8 8 0 0 1-1 0 1.2 1.2 0 0 1-.81-.29 1.15 1.15 0 0 1-.27-.86v-4.67h2.08v-2h-2.08v-1.49l-2.1 1.61v6.55a2.92 2.92 0 0 0 1 2.61 4.94 4.94 0 0 0 3.13.45z"/></svg>