<svg xmlns="http://www.w3.org/2000/svg" width="112" height="56" fill="none"><path fill="#094153" d="M0 0h112v56H0z"/><path fill="url(#a)" d="M0 0h112v56H0z"/><path fill="url(#b)" d="M0 0h112v56H0z"/><g fill="#F7FDFC" clip-path="url(#c)"><path d="M85.859 30.55h-.332a.3.3 0 0 0-.233.102c-.091.095-.105.217-.083.337.27 1.459.408 2.883.453 4.226H81.5a.32.32 0 0 0-.234.097c-.066.066-.106.15-.106.287v1.215c0 .241.164.376.362.376h4.142a29 29 0 0 1-.457 4.248.37.37 0 0 0 .09.316c.082.084.179.104.292.104h1.056a.5.5 0 0 0 .358-.153c.107-.111.126-.231.137-.3.084-.498.165-1.043.232-1.624.09-.783.157-1.66.185-2.59h4.082c.198 0 .361-.136.362-.377v-1.215c0-.138-.04-.221-.106-.287a.32.32 0 0 0-.234-.097h-4.103a31 31 0 0 0-.42-4.228.5.5 0 0 0-.182-.333.5.5 0 0 0-.267-.104h-.8290000000000001M58.321 9a32 32 0 0 0-7.895.987 30.5 30.5 0 0 0-6.106 2.272q-1.071.536-2.03 1.118a29 29 0 0 0-5.664 4.445c-.43.433-.827.854-1.243 1.327l-.11.125c-.066.074-.145.189-.106.347q.02.076.079.135a.3.3 0 0 0 .23.073.5.5 0 0 0 .245-.103 1 1 0 0 0 .108-.098c.128-.134.245-.265.369-.395q.331-.349.68-.69c.88-.866 1.978-1.81 3.177-2.674a28.5 28.5 0 0 1 5.278-3.014 30.541 30.541 0 0 1 8.683-2.334 31 31 0 0 1 3.672-.214c2.837 0 5.735.388 8.519 1.18q1.509.429 2.94 1.003c1.24.496 2.38 1.041 3.598 1.735a27.1 27.1 0 0 1 6.043 4.676 26 26 0 0 1 2.284 2.684 25.6 25.6 0 0 1 2.832 4.873c.477 1.084.762 1.97.762 1.97.03.084.052.119.088.174a.46.46 0 0 0 .367.186h1.16a.3.3 0 0 0 .174-.047.35.35 0 0 0 .131-.148.4.4 0 0 0 .012-.267 25.6 25.6 0 0 0-1.663-3.877 28.1 28.1 0 0 0-4.972-6.75 28.8 28.8 0 0 0-5.852-4.497 30.4 30.4 0 0 0-6.844-2.93A32 32 0 0 0 58.32 9M53 36.07c.04.006.049.008.087.012.448.062.796.126 1.11.207.362.094.67.209.894.336a1.602 1.602 0 0 1 .587.524 2.805 2.805 0 0 1 .326.667 2.974 2.974 0 0 1 .108 1.358 2.4 2.4 0 0 1-.444 1.094 2.86 2.86 0 0 1-1.066.857c-.522.257-1.073.384-1.624.449a5.64 5.64 0 0 1-3.08-.558 5 5 0 0 1-.78-.48 2.8 2.8 0 0 1-.597-.584c-.25-.349-.345-.657-.343-.965.002-.292.093-.558.232-.757.159-.243.415-.418.707-.54.492-.208 1.097-.266 1.586-.248.593.022 1.66.21 2.223.413.156.057.731.284.832.389.071.072.117.178.086.275-.13.402-1.086.612-1.36.653-.74.115-1.13-.17-1.971-.506-.209-.082-.487-.175-.7-.195s-.45.005-.63.104a.5.5 0 0 0-.28.45c.002.17.135.326.41.448q.184.081.354.135c.303.096.584.136.906.14.631.01 1.3-.036 1.942-.172.694-.146 1.358-.398 1.915-.798.145-.107.29-.261.291-.458.006-.397-.68-.638-.68-.638-.603-.257-1.616-.39-2.35-.47q-.216-.025-.393-.044l-.43-.038-.345-.028a30 30 0 0 1-1.04-.095 9 9 0 0 1-.561-.08 2.5 2.5 0 0 1-.497-.128c-.15-.06-.303-.16-.424-.29a.8.8 0 0 1-.213-.388c-.125-.499.034-1.115.307-1.515.718-1.046 2.396-1.442 3.648-1.598 1.213-.154 3.174-.152 4.366.491.183.099.279.194.24.393-.079.376-.355.618-.692.724-.352.113-1.082.157-1.403.178-1.436.081-3.174.037-4.542.417-.106.032-.29.082-.351.15-.115.127.003.206.158.256.114.036.26.061.457.09zM63.59 40.023c-.268.638-.975 1.32-1.85.896-.867-.424-2.246-3.29-2.246-3.29s-.524-1.07-.623-1.043c0 0-.114-.208-.183.96-.072 1.163.014 3.43-.443 3.788-.433.357-.956.216-1.23-.203-.245-.413-.348-1.391-.214-3.11.16-1.723.553-3.556 1.057-4.127.502-.565.905-.154 1.063-.005 0 0 .672.62 1.782 2.437l.194.337s1.007 1.717 1.114 1.713c0 0 .082.078.155.02.107-.03.063-.58.063-.58s-.21-1.872-1.127-5.04c0 0-.14-.394-.046-.765.094-.374.462-.199.462-.199s1.425.728 2.117 3.085c.687 2.357.226 4.484-.046 5.126M71.529 34.86c-1.007.237-3.657.367-3.657.367l-.335 1.065s1.324-.116 2.289-.013c0 0 .311-.037.348.36.012.371-.032.767-.032.767s-.02.24-.355.302c-.362.063-2.855.16-2.855.16l-.403 1.386s-.15.322.187.23c.311-.085 2.923-.583 3.262-.51.366.09.769.584.652 1.034-.14.558-2.745 2.246-4.331 2.129 0 0-.836.054-1.54-1.089-.656-1.09.248-3.154.248-3.154s-.413-.962-.113-1.29c0 0 .18-.163.701-.2l.638-1.344s-.727.05-1.16-.493c-.404-.516-.437-.752-.128-.895.33-.166 3.36-.728 5.445-.657 0 0 .725-.073 1.353 1.206 0 0 .304.515-.214.64M78.381 35.584s-.01-.078-.047-.157c-.08-.166-.284-.333-.78.235-.629.706-1.764 2.03-2.678 3.83.96-.11 1.884-.639 2.163-.909.268-.241.746-.727 1.058-1.389.173-.364.296-.783.303-1.243a3 3 0 0 0-.019-.367m.504 3.03c-.648 1.149-2.48 3.554-4.912 2.987-.299.736-.58 1.475-.835 2.267-.43 1.338-.788 2.828-1.031 4.71 0 0-.084.582-.56.38-.374-.133-.94-.66-1.237-1.421-.078-.2-.135-.41-.168-.64a5.5 5.5 0 0 1 .018-1.26c.1-.848.351-1.864.742-2.99a27 27 0 0 1 1.002-2.464c-.377-.625-.636-1.518-.416-2.789 0 0 .107-.776.638-1.84a9.1 9.1 0 0 1 2.022-2.649s.28-.246.44-.17c.18.077.1.844-.043 1.218-.147.372-1.187 2.2-1.187 2.2s-.648 1.234-.465 2.207c.57-.888 1.474-2.196 2.453-3.22.845-.884 1.746-1.557 2.533-1.564.458-.004.912.221 1.221.799.252.47.37 1.1.37 1.758 0 .867-.204 1.792-.585 2.48M45.138 31.574s-.185.339-.229.402a1 1 0 0 1-.171.2.4.4 0 0 1-.225.104c-.095.008-.191-.027-.294-.114a1.28 1.28 0 0 1-.4-.9c-.005-.146.018-.308-.01-.43a1 1 0 0 0-.166-.334c-.067-.1-.14-.196-.192-.29a2.002 2.002 0 0 1-.25-.912c-.043-.822.384-1.585.938-2.182a6.2 6.2 0 0 1 2.08-1.447c.752-.322 1.86-.542 2.686-.251.269.095.642.327.831.569.04.052.073.106.114.132.036.024.131.034.208.048.264.047.643.25.799.384.31.273.48.534.558.911.075.355.014.757-.127 1.116-.148.38-.384.727-.636.988-.84.875-1.672 1.49-2.75 1.918a5 5 0 0 1-1.163.292 3.4 3.4 0 0 1-1.075-.04s-.397-.082-.526-.164m1.786-1.335c.43-.042.803-.119 1.148-.23q.282-.091.557-.226a4.8 4.8 0 0 0 1.063-.717q.207-.19.35-.383c.187-.254.299-.541.264-.843a.66.66 0 0 0-.4-.534c-.457-.202-.973.038-1.347.258-.27.159-.677.464-1.056.793-.45.388-.877.83-1.146 1.182-.152.21-.307.42-.449.638.022.06.522.089.799.07m-2.254-.69c.146-.236.317-.466.48-.682a11.334 11.334 0 0 1 1.435-1.535l.321-.276s-.12.003-.276.034c-.075.015-.208.05-.316.09-.131.05-.239.096-.334.145-.297.152-.556.359-.677.464a2.8 2.8 0 0 0-.612.731 1.2 1.2 0 0 0-.158.503.8.8 0 0 0 .054.346c.033.08.083.18.083.18M46.1 33.261c.032.006.082.02.125.037.378.146.533.501.627.892.214.904.306 2.906.342 3.689.026.588.04 1.166.064 1.749.02.49.06 1.146-.04 1.607a.76.76 0 0 1-.304.458c-.178.117-.586.126-.811.078-.551-.115-.73-.476-.81-1.03-.188-1.325-.097-3.926.013-5.022.037-.363.17-1.524.357-2.01.064-.165.2-.494.436-.448M25.82 23.712a15 15 0 0 0-2.147.115c-.628.08-1.28.204-1.88.372a2.9 2.9 0 0 0-.848.363c-.274.182-.5.424-.68.747-.168.301-.327.633-.24.968.072.283.45.376.792.434.308.049 1.005.086 1.19-.143.052-.055.076-.212.006-.315-.07-.124-.246-.214-.414-.246-.142-.026-.381-.05-.53-.072a.6.6 0 0 1-.184-.047l-.018-.012q-.01-.012-.008-.014 0-.002.009-.014l.031-.028c.119-.078.5-.187.596-.213.435-.122 1.104-.195 1.651-.224.54-.028 1.089-.028 1.537-.011a21.5 21.5 0 0 1 5.326.865c.954.276 1.928.62 2.959 1.032a21 21 0 0 1 4.309 2.364c1.216.87 2.301 1.857 3.142 2.948.51.666 1.12 1.671 1.424 2.646a3.874 3.874 0 0 1-.04 2.587c-.346.927-1.079 1.79-2.286 2.432a8 8 0 0 1-1.537.612c-.626.181-1.272.297-1.914.368-.758.083-1.514.1-2.284.08a11 11 0 0 1-.595-.04c-.66-.061-1.26-.166-1.605-.232l-.119-5.663c.864.013 1.815.117 2.711.276.5.088 1.346.26 2.388.602.21.072.458.226.479.45a.38.38 0 0 1-.085.26c-.157.214-.414.374-.632.481-.13.065-.245.113-.297.173-.057.078-.061.19.017.253.108.087.277.148.448.188.864.2 1.44-.194 1.775-.568.362-.405.466-.719.5-1.047.059-.564-.195-1.006-.323-1.19-.318-.454-.806-.76-1.2-.951-.893-.434-1.912-.658-2.43-.751a16 16 0 0 0-2.463-.235c-.45-.01-.903.013-.903.013s-.019-.768-.052-1.278c-.055-.84-.283-2.486-1.034-2.96-.137-.086-.306-.095-.401.035-.147.194-.29.93-.323 1.12-.031.181-.064.409-.094.65a26 26 0 0 0-.117 1.147c-.015.191-.057.814-.065 1.473-.01.01-.022.024-.035.033 0 0-.338.052-.77.139-1.418.287-2.404.686-2.79.858-.69.307-1.68.85-1.982 1.56-.07.177-.099.287-.107.467-.018.396.126.745.248.967.326.625.978 1.299 1.527 1.801.395.362.971.813 1.435 1.135.378.262.663.447.927.605.307.184.609.348.916.496.166.08.371.182.56.273 0 0 .027.268.064.575.037.33.07.663.2.971.049.112.105.211.183.3.216.246.46.297.561.316.207.038.403.017.61-.023a1 1 0 0 0 .242-.082.6.6 0 0 0 .264-.28c.091-.186.124-.483.127-.521.01-.17.003-.362.003-.362s.666.16 1.131.246c.763.137 1.496.218 2.365.232 1.048.016 2.167-.12 3.365-.415a11 11 0 0 0 2.086-.73 7.7 7.7 0 0 0 1.666-1.05 6.1 6.1 0 0 0 1.372-1.631c.021-.037.08-.123.156-.255.214-.366.478-.933.617-1.654a6 6 0 0 0 .077-.635 6.14 6.14 0 0 0-.488-2.695 9.3 9.3 0 0 0-.974-1.796 16 16 0 0 0-1.8-2.16c-.43-.436-.757-.742-1.311-1.215-.786-.662-1.536-1.16-1.767-1.314a22 22 0 0 0-2.417-1.385 26 26 0 0 0-3.68-1.464 30 30 0 0 0-1.164-.34 23 23 0 0 0-2.999-.62 18 18 0 0 0-1.96-.147m3.469 11.75s-.019.838-.022 1.684c-.004.875.006 1.758.016 2.38.008.52.017.857.017.857s-.594-.197-.901-.353q-.846-.37-1.613-.86a12 12 0 0 1-1.7-1.293 11 11 0 0 1-.38-.37c-.233-.234-.467-.472-.411-.79.042-.244.555-.475.752-.53.47-.137.944-.26 1.445-.364.534-.111 1.05-.196 1.42-.238.512-.079 1.377-.122 1.377-.122"/></g><defs><radialGradient id="a" cx="0" cy="0" r="1" gradientTransform="matrix(0 68.5 -228.548 0 56 0)" gradientUnits="userSpaceOnUse"><stop offset=".33" stop-color="#0A586A" stop-opacity="0"/><stop offset="1" stop-color="#74E1EB"/></radialGradient><radialGradient id="b" cx="0" cy="0" r="1" gradientTransform="matrix(0 -73 243.562 0 53 56)" gradientUnits="userSpaceOnUse"><stop offset=".297" stop-color="#08475A" stop-opacity="0"/><stop offset=".766" stop-color="#072B3D"/><stop offset=".895" stop-color="#082E41"/><stop offset="1" stop-color="#06354B"/></radialGradient><clipPath id="c"><path fill="#fff" d="M20 9h72v40H20z"/></clipPath></defs></svg>