<svg xmlns="http://www.w3.org/2000/svg" width="112" height="56" fill="none"><path fill="url(#a)" d="M0 0h112v56H0z"/><path fill="#fff" d="M19.685 40V17.664h14.816V21.6H24.485v5.12h8.96v3.936h-8.96V40zM43.48 40h-4.735V17.664h8.64q1.631 0 2.912.512 1.28.48 2.144 1.408a5.9 5.9 0 0 1 1.344 2.24q.448 1.312.448 2.944 0 2.368-1.024 4.064-1.025 1.695-2.912 2.24L54.68 40h-5.248l-3.744-8.288H43.48zm2.753-12q1.695 0 2.336-.64.672-.64.672-2.112v-.96q0-1.471-.672-2.112-.64-.64-2.336-.64H43.48V28zM58.06 40V17.664h14.272V21.6H62.86v5.12h9.152v3.936H62.86v5.408h9.472V40zM77.248 40V17.664H91.52V21.6h-9.472v5.12H91.2v3.936h-9.152v5.408h9.472V40z"/><defs><linearGradient id="a" x1="0" x2="44.8" y1="0" y2="89.6" gradientUnits="userSpaceOnUse"><stop stop-color="#3528A9"/><stop offset="1" stop-color="#B16BCE"/></linearGradient></defs></svg>