<svg xmlns="http://www.w3.org/2000/svg" width="112" height="56" fill="none"><path fill="url(#a)" d="M0 0h112v56H0z"/><path fill="#fff" d="M53.603 41.563h-5.497v-.894c-.82.608-2.021 1.284-4.068 1.284-6.653 0-9.234-3.614-9.234-10.614V20.228h5.498V31.34c-.02 1.908 0 5.501 3.959 5.501s3.85-3.4 3.85-5.46V20.227h5.498v21.336zM32.65 12.172c-6.047-.666-7.42.722-8.524 2.168-.974 1.28-1.099 3.058-1.099 4.332v1.55H20v5.111h3.078v16.225h5.498V25.333h4.15v-5.112h-4.041v-1.44c0-1.466 1.17-1.648 1.761-1.612l1.208.057.99-5.054zm61.346 18.72c0-6.136-4.918-11.113-10.98-11.113-2.576 0-4.944.9-6.814 2.398a12.9 12.9 0 0 1 2.622 4.774c1-1.264 2.471-2.065 4.12-2.065 3.005 0 5.44 2.663 5.44 5.944s-2.435 5.944-5.44 5.944-5.416-2.632-5.442-5.892c0-2.824-1.02-5.403-2.704-7.364-1.975-2.298-4.856-3.749-8.068-3.749-2.01 0-3.887.567-5.498 1.555v-9.002l-5.498 1.082v28.144h5.498v-.89c1.611.988 3.487 1.337 5.498 1.337 2.539 0 4.87-.905 6.71-2.418a13 13 0 0 1-2.7-4.758c-.99 1.33-2.466 2.173-4.12 2.173-2.974 0-5.388-2.735-5.388-6.11s2.414-6.11 5.389-6.11 5.389 2.74 5.389 6.115C72.009 37.023 76.942 42 83.004 42 89.067 42 94 37.023 94 30.887z"/><defs><linearGradient id="a" x1="56.002" x2="56.002" y1="56" y2="0" gradientUnits="userSpaceOnUse"><stop stop-color="#E3001B"/><stop offset=".5" stop-color="#FF3A0B"/><stop offset="1" stop-color="#FF3A0B"/></linearGradient></defs></svg>