<svg xmlns="http://www.w3.org/2000/svg" width="112" height="56" fill="none"><path fill="#38CE7F" d="M0 0h112v56H0z"/><path fill="#fff" d="M67.23 16h-4.52v23.86h4.52z"/><path fill="#fff" fill-rule="evenodd" d="M27 16h4.49v7.94a2.85 2.85 0 0 1 1.45-.32h3.47a4.93 4.93 0 0 1 4.91 4.91v11.33h-4.5v-9.65a1.5 1.5 0 0 0-1.49-1.49h-2.32a1.503 1.503 0 0 0-1.52 1.49v9.65H27zM59.02 23.59v11.35a4.93 4.93 0 0 1-4.91 4.92h-4.39a4.93 4.93 0 0 1-4.91-4.92V23.59h4.52v9.83a1.5 1.5 0 0 0 1.49 1.52h2.19a1.5 1.5 0 0 0 1.48-1.53v-9.82zM85.13 23.59v11.35a4.93 4.93 0 0 1-4.91 4.92h-4.4a4.93 4.93 0 0 1-4.91-4.92V23.59h4.52v9.83a1.5 1.5 0 0 0 1.49 1.52h2.19a1.5 1.5 0 0 0 1.49-1.49v-9.86z" clip-rule="evenodd"/></svg>