<svg xmlns="http://www.w3.org/2000/svg" width="112" height="56" fill="none"><path fill="url(#a)" d="M0 0h112v56H0z"/><path fill="#fff" d="M29.454 17c-2.155 0-4.344.975-7.15 3.168v-2.61H17v20.885h5.646V25.459c2.463-1.984 3.592-2.611 4.516-2.611 1.094 0 1.813.696 1.813 2.436v13.159h5.645v-13.02c2.463-1.948 3.559-2.575 4.516-2.575 1.095 0 1.813.696 1.813 2.436v13.159h5.645V23.266c0-4.7-2.635-6.266-5.167-6.266-2.155 0-4.345.906-7.22 3.133C33.287 17.8 31.268 17 29.455 17m28.603 0c-5.61 0-10.264 4.909-10.264 11s4.653 11 10.264 11c2.771 0 5.166-1.044 7.015-3.307v2.75h5.372V17.557h-5.372v2.75C63.223 18.045 60.828 17 58.056 17m13.378.557c2.327 3.69 4.961 6.997 8.04 10.304-3.079 3.446-5.713 7.032-8.04 10.582h6.808a45.6 45.6 0 0 1 5.509-7.31c2.053 2.262 3.763 4.664 5.372 7.31H96c-2.36-3.655-4.927-7.136-8.006-10.582 3.045-3.307 5.645-6.718 8.006-10.304h-6.74c-1.675 2.646-3.488 4.874-5.508 7.067-2.053-2.193-3.866-4.421-5.509-7.067zM58.911 21.84c3.352 0 6.055 2.75 6.055 6.16 0 3.412-2.703 6.162-6.055 6.162S52.856 31.412 52.856 28s2.703-6.161 6.055-6.161m0 1.392c-2.566 0-4.653 2.123-4.653 4.769s2.087 4.77 4.653 4.77 4.653-2.124 4.653-4.77-2.087-4.77-4.653-4.77"/><defs><radialGradient id="a" cx="0" cy="0" r="1" gradientTransform="matrix(69.5 0 0 34.75 56 28.51)" gradientUnits="userSpaceOnUse"><stop stop-color="#002BE7"/><stop offset=".616" stop-color="#0120C8"/><stop offset="1" stop-color="#00008F"/></radialGradient></defs></svg>