<svg xmlns="http://www.w3.org/2000/svg" width="112" height="56" fill="none"><path fill="#E6E6E6" d="M0 0h112v56H0z"/><path fill="#E50914" d="M28.5 37.7c-1.16.2-2.33.27-3.54.43L21.3 27.11V38.6c-1.15.13-2.21.29-3.3.45V18h3.08l4.21 12V18h3.21zm6.37-12c1.26 0 3.18-.06 4.34-.06v3.29c-1.44 0-3.12 0-4.34.06v4.89c1.91-.12 3.81-.28 5.73-.35v3.17l-9 .72V18h9v3.29h-5.73zm17.78-4.42H49.3v15.14h-3.24V21.29h-3.37V18h10zm5.26 4.2h4.39v3.28h-4.39v7.47h-3.18V18h9v3.29h-5.82zm11.13 7.87c1.84 0 3.71.18 5.51.29v3.25c-2.9-.19-5.79-.37-8.75-.44V18h3.24zm8.26 3.77c1 .06 2.13.13 3.18.25V18H77.3zM94.65 18l-4.11 10 4.11 11c-1.22-.16-2.43-.39-3.65-.59l-2.32-6.06-2.38 5.62c-1.18-.21-2.31-.27-3.48-.44l4.17-9.64L83.22 18h3.48l2.13 5.53L91.1 18z"/></svg>