<svg xmlns="http://www.w3.org/2000/svg" width="112" height="56" fill="none"><path fill="#000" d="M0 0h112v56H0z"/><path fill="#F2F2F2" d="M16.75 22.51A5.75 5.75 0 0 0 11 28.26v13.29h2.73v-7.38l1 1.06 4-1.58a5.75 5.75 0 0 0-2-11.14zm1 8.73-4 1.58v-4.56a3 3 0 0 1 6 0 3.09 3.09 0 0 1-2 3zm47.08-8.73a5.75 5.75 0 1 0 .02 0zm0 8.9a3.16 3.16 0 1 1 3-3.15 3 3 0 0 1-2.98 3.15zm12.46-6.29a2.94 2.94 0 0 1 2.66 1.62l2.18-1.62a5.75 5.75 0 1 0 0 6.37L80 29.86a2.94 2.94 0 0 1-2.66 1.62 3 3 0 0 1-3-3.16 3.09 3.09 0 0 1 2.95-3.2m-23.25 0a2.93 2.93 0 0 1 2.65 1.62l2.14-1.62a5.75 5.75 0 1 0 0 6.37l-2.14-1.63a2.93 2.93 0 0 1-2.65 1.62 3 3 0 0 1-3-3.16 3.08 3.08 0 0 1 3-3.2m-9.53-1.22a4.64 4.64 0 0 0-3.38-1.39 5.76 5.76 0 0 0 0 11.49 4.61 4.61 0 0 0 3.43-1.37v1h2.73V22.86h-2.78zm-3 7.53a3.16 3.16 0 1 1 3-3.15 3 3 0 0 1-3.02 3.13zm48.17-3.54h-1.24l4.73-5h-3.51l-3.82 4.12v-10h-2.71v16.66h2.72v-3.08l1.5-1.59 3.21 4.67h3.3zm-60.55-5.38a5.75 5.75 0 1 0 0 11.49 5.83 5.83 0 0 0 4.69-2.31l-2.19-1.52a3.06 3.06 0 0 1-5.3-.67h8.3q.133-.613.13-1.24a5.64 5.64 0 0 0-5.63-5.75m-2.78 4.5a3 3 0 0 1 2.78-1.89 2.79 2.79 0 0 1 2.69 1.91z"/><path fill="#069DE0" d="M98.8 32.04a1.65 1.65 0 1 0 1.66 1.65 1.66 1.66 0 0 0-1.66-1.65"/><path fill="#6E55DC" d="M98.8 27.53a1.65 1.65 0 1 0 1.66 1.65 1.66 1.66 0 0 0-1.66-1.65"/><path fill="#05AC3F" d="M98.8 36.54a1.66 1.66 0 1 0 1.66 1.66 1.666 1.666 0 0 0-1.66-1.66"/><path fill="#EF1541" d="M98.8 23.01a1.65 1.65 0 1 0 1.66 1.65 1.66 1.66 0 0 0-1.66-1.65"/><path fill="#FF7112" d="M98.8 18.5a1.65 1.65 0 1 0 1.66 1.62 1.66 1.66 0 0 0-1.66-1.65z"/><path fill="#FCCC12" d="M98.8 14a1.65 1.65 0 1 0 1.66 1.65A1.66 1.66 0 0 0 98.8 14"/></svg>